/* XPM */
static char *_89a6533b2584fc8c1af69b6ab1a5073ZSm0WdaK976KjUUc[] = {
/* columns rows colors chars-per-pixel */
"30 28 188 2 ",
"   c None",
".  c #2C222C",
"X  c #342523",
"o  c #302227",
"O  c #312227",
"+  c #332226",
"@  c #392321",
"#  c #312029",
"$  c #31262D",
"%  c #36242C",
"&  c #34242E",
"*  c #37252F",
"=  c #33282F",
"-  c #2C2A30",
";  c #2C2F39",
":  c #332630",
">  c #342730",
",  c #352730",
"<  c #332535",
"1  c #362931",
"2  c #362C30",
"3  c #352934",
"4  c #372A36",
"5  c #3C2A33",
"6  c #3E2C31",
"7  c #3B2F35",
"8  c #3E2E34",
"9  c #3F2F35",
"0  c #2E3035",
"q  c #363335",
"w  c #3A3039",
"e  c #3A313A",
"r  c #3D3139",
"t  c #4B1C2B",
"y  c #481D2D",
"u  c #4B1D2D",
"i  c #691D30",
"p  c #46202B",
"a  c #432B29",
"s  c #402B2C",
"d  c #49282E",
"f  c #52362B",
"g  c #402934",
"h  c #402E34",
"j  c #422E34",
"k  c #422E36",
"l  c #422F37",
"z  c #402F39",
"x  c #5A2330",
"c  c #433031",
"v  c #403036",
"b  c #463237",
"n  c #4A3332",
"m  c #4D3932",
"M  c #40343E",
"N  c #4D3538",
"B  c #4A363D",
"V  c #4E343C",
"C  c #4C373C",
"Z  c #4D363E",
"A  c #4F383B",
"S  c #4D383C",
"D  c #4C393D",
"F  c #523730",
"G  c #523637",
"H  c #5F3C30",
"J  c #51353B",
"K  c #5C363F",
"L  c #51383E",
"P  c #543B3D",
"I  c #553B3F",
"U  c #5A3F38",
"Y  c #593F3A",
"T  c #583D3E",
"R  c #682335",
"E  c #78203B",
"W  c #5F413C",
"Q  c #5D433D",
"!  c #6D4937",
"~  c #67463B",
"^  c #68463F",
"/  c #6E4B3F",
"(  c #754B39",
")  c #744B3D",
"_  c #7B523E",
"`  c #7E503E",
"'  c #393441",
"]  c #4C3940",
"[  c #503A42",
"{  c #513C41",
"}  c #543D43",
"|  c #543B45",
" . c #583D40",
".. c #5C3D42",
"X. c #4B4747",
"o. c #4D4D4E",
"O. c #5B4043",
"+. c #5F4240",
"@. c #5F4142",
"#. c #534048",
"$. c #5D5B5C",
"%. c #6C4940",
"&. c #6D4844",
"*. c #684B4F",
"=. c #704F43",
"-. c #704C45",
";. c #714E45",
":. c #774E44",
">. c #744F46",
",. c #764E46",
"<. c #714F48",
"1. c #725247",
"2. c #745145",
"3. c #7A5147",
"4. c #7D5646",
"5. c #7F564B",
"6. c #7F5C49",
"7. c #685E58",
"8. c #6E5F58",
"9. c #7C5D55",
"0. c #961A3A",
"q. c #A11639",
"w. c #A01938",
"e. c #AB1940",
"r. c #AC1E42",
"t. c #AE1E44",
"y. c #BA1843",
"u. c #BF1943",
"i. c #9D3953",
"p. c #C11643",
"a. c #C31944",
"s. c #C01E49",
"d. c #DB1549",
"f. c #D61A48",
"g. c #D81849",
"h. c #815244",
"j. c #845646",
"k. c #845747",
"l. c #885745",
"z. c #815845",
"x. c #825845",
"c. c #855845",
"v. c #875845",
"b. c #845946",
"n. c #845B47",
"m. c #8A5942",
"M. c #885A43",
"N. c #8B5B42",
"B. c #895944",
"V. c #895845",
"C. c #885945",
"Z. c #895945",
"A. c #8A5945",
"S. c #885A44",
"D. c #895A44",
"F. c #895A45",
"G. c #8A5B44",
"H. c #8A5A45",
"J. c #8A5B45",
"K. c #8B5B45",
"L. c #885946",
"P. c #885A46",
"I. c #895A46",
"U. c #885B46",
"Y. c #885A47",
"T. c #8A5A46",
"R. c #8A5B46",
"E. c #8B5B46",
"W. c #8A5A47",
"Q. c #8A5B47",
"!. c #8B5B47",
"~. c #8C5B47",
"^. c #895C45",
"/. c #8A5C44",
"(. c #8A5C45",
"). c #895E45",
"_. c #8B5C46",
"`. c #8B5D46",
"'. c #8B5C47",
"]. c #8C5D46",
"[. c #845748",
"{. c #835A48",
"}. c #855B49",
"|. c #865B48",
" X c #825A4E",
".X c #885949",
"XX c #8A5B48",
"oX c #8A5B49",
/* pixels */
"                                                            ",
"                                                            ",
"                                                            ",
"                                                            ",
"                                                            ",
"                                                            ",
"                                                            ",
"      4 E q.w.R u t O v k 8 :                               ",
"        i.d.f.a.p.e.d C | ] V h : < e                       ",
"  '     *.r.y.u.g.s.P [ } %.&.1.~ T n g k * ,               ",
"    - 0 4 y u i 0.t.K P / k.'.).{.4.4.^ Q N b , , 8         ",
"                  x ] %.R.R.R.^.R.R.R.v.z.,. .} D 6         ",
"                  O V 3.R.R.R.R.R.v.R.R.v.:.J k 5           ",
"                  # C ;..XR.v.R.R.v.R.k.1.  $               ",
"                  . D ~ k.R.R.R.R.R.l.R. X  ;               ",
"                    8  .5.R.R.v.v.R.R.^.m.9.o.q             ",
"                    1 ] &.R.l.R.R.k.v.v./.{.7.X.e           ",
"                      v ..h.R.R.R.m.R.R.^.|.8.$.#.g         ",
"                      e B -.R.l.R.R.R.v.^.^.;.2 = #         ",
"                        r s ~ {.R.l.R.l.m.^.( a             ",
"                              m =.k.].~.'.R.b.Y             ",
"                                  Y ! .X'.^.R.H             ",
"                                      F ) _ _ f             ",
"                                          @ X               ",
"                                                            ",
"                                                            ",
"                                                            ",
"                                                            "
};
