/* XPM */
static char *fb11e4d05d524628f1deb598679baaf4vhrC15euWSZmXSwR[] = {
/* columns rows colors chars-per-pixel */
"30 28 159 2 ",
"   c None",
".  c #321C1C",
"X  c #2E1E25",
"o  c #322029",
"O  c #35252B",
"+  c #33252D",
"@  c #30242E",
"#  c #3A242D",
"$  c #312730",
"%  c #342931",
"&  c #352A30",
"*  c #342B31",
"=  c #362B32",
"-  c #332E35",
";  c #3F2B33",
":  c #3D2C30",
">  c #3C2E35",
",  c #3E2D36",
"<  c #3C2E36",
"1  c #3D2E36",
"2  c #3E2E36",
"3  c #313034",
"4  c #3E3534",
"5  c #3C3638",
"6  c #541D2F",
"7  c #6E1A32",
"8  c #711631",
"9  c #791730",
"0  c #42292B",
"q  c #402F2B",
"w  c #59212D",
"e  c #42312D",
"r  c #44322E",
"t  c #472C33",
"y  c #402E35",
"u  c #422F37",
"i  c #452E39",
"p  c #5D2537",
"a  c #582C3C",
"s  c #443233",
"d  c #443236",
"f  c #443635",
"g  c #4D3330",
"h  c #423138",
"j  c #47353A",
"k  c #4B3538",
"l  c #473A3C",
"z  c #533A35",
"x  c #583B36",
"c  c #57303D",
"v  c #533838",
"b  c #533839",
"n  c #543B38",
"m  c #513B3C",
"M  c #51393F",
"N  c #543A3D",
"B  c #563A3F",
"V  c #553C3C",
"C  c #5A3D39",
"Z  c #5C3F3C",
"A  c #5C3E3E",
"S  c #6B202F",
"D  c #622432",
"F  c #672139",
"G  c #6B343F",
"H  c #5D4338",
"J  c #5F4239",
"K  c #694537",
"L  c #654238",
"P  c #66443F",
"I  c #6E473A",
"U  c #6D473E",
"Y  c #66483C",
"T  c #6F4B38",
"R  c #68493E",
"E  c #724C3D",
"W  c #7B523F",
"Q  c #4F3A40",
"!  c #503C40",
"~  c #513D44",
"^  c #693240",
"/  c #7D3345",
"(  c #454045",
")  c #474147",
"_  c #574044",
"`  c #564A4C",
"'  c #565254",
"]  c #6B4841",
"[  c #6C4842",
"{  c #724D40",
"}  c #744D46",
"|  c #7C5343",
" . c #7D5442",
".. c #7C5344",
"X. c #7F5444",
"o. c #7B5148",
"O. c #7B5749",
"+. c #625E5B",
"@. c #7B555A",
"#. c #A01B3C",
"$. c #8A203C",
"%. c #B71941",
"&. c #B71942",
"*. c #B51B44",
"=. c #BB264A",
"-. c #C71743",
";. c #CE1A44",
":. c #D21A47",
">. c #D6174A",
",. c #D11A48",
"<. c #D01B49",
"1. c #D51C4B",
"2. c #815743",
"3. c #805545",
"4. c #825746",
"5. c #825747",
"6. c #875A42",
"7. c #865B42",
"8. c #875945",
"9. c #865A47",
"0. c #8A5A41",
"q. c #8B5942",
"w. c #885B42",
"e. c #8D5A42",
"r. c #885945",
"t. c #8A5844",
"y. c #8B5845",
"u. c #8B5945",
"i. c #895A45",
"p. c #8A5B44",
"a. c #8A5A45",
"s. c #8B5A45",
"d. c #8A5B45",
"f. c #885846",
"g. c #895947",
"h. c #885A46",
"j. c #895A46",
"k. c #885A47",
"l. c #8A5A46",
"z. c #8B5B46",
"x. c #8A5B47",
"c. c #8C5945",
"v. c #8D5B45",
"b. c #885C47",
"n. c #8A5C46",
"m. c #8E5C44",
"M. c #8C5D46",
"N. c #815B49",
"B. c #875C49",
"V. c #845C4A",
"C. c #835E4C",
"Z. c #885848",
"A. c #895948",
"S. c #8A5B48",
"D. c #8B5B48",
"F. c #8A5B49",
"G. c #8A5B4A",
"H. c #8C5C48",
"J. c #8E5D4A",
/* pixels */
"                                                            ",
"                                                            ",
"                                                            ",
"                                                            ",
"                                                            ",
"                                                            ",
"                                                            ",
"                                                            ",
"        a 7 8 p                                             ",
"        $.<.1.&.$.6 o , t u @                               ",
"        @.=.<.<.>.*.w l B v C x 0 # ,                       ",
"    3 5 4 a 9 #.-.;.G ! Z E 4.B.o.} z ; , * *               ",
"                S &.^ Z | e.c.y.y.M..._ Q k j : O *         ",
"                  F c [ b.q.y.S.k.y.k.] V ! Q m B d         ",
"                    i U b.D.S.8.8.8.y.8...] v h , ,         ",
"                    O R M.b.b.y.b.y.b.8.q.6.I . *           ",
"                      g K 2.J.y.y.b.8.b.k.7.b.W H f         ",
"                          n L 4.2.2.q.M.b.y.y.J.b.T         ",
"                              r e e Y { O.C.N.N.H s         ",
"                                        ) ) ' +.` u         ",
"                                              3 * X         ",
"                                                            ",
"                                                            ",
"                                                            ",
"                                                            ",
"                                                            ",
"                                                            ",
"                                                            "
};
