/* XPM */
static char *_c7aa0b13c124ceef3ed775274b18404wz3E1DcKnI71FWzQ[] = {
/* columns rows colors chars-per-pixel */
"30 28 168 2 ",
"   c None",
".  c #2C2C2B",
"X  c #392426",
"o  c #3D2820",
"O  c #312229",
"+  c #3B242B",
"@  c #3D242A",
"#  c #3B262C",
"$  c #322330",
"%  c #3C2D36",
"&  c #3C2E36",
"*  c #3A2C39",
"=  c #3D3037",
"-  c #343039",
";  c #3B333C",
":  c #471F29",
">  c #6D1D2D",
",  c #402626",
"<  c #482D27",
"1  c #452F2A",
"2  c #462F2C",
"3  c #492E29",
"4  c #42302E",
"5  c #4E332F",
"6  c #4D342F",
"7  c #59392F",
"8  c #422D32",
"9  c #432E37",
"0  c #462D35",
"q  c #452E36",
"w  c #462E36",
"e  c #413037",
"r  c #4B3333",
"t  c #4F3633",
"y  c #49363E",
"u  c #4F3A3F",
"i  c #503732",
"p  c #523B34",
"a  c #543A36",
"s  c #5B3E35",
"d  c #5D3F36",
"f  c #56373C",
"g  c #563F3E",
"h  c #72213C",
"j  c #7E223D",
"k  c #603E34",
"l  c #603C36",
"z  c #58423A",
"x  c #5F443A",
"c  c #614138",
"v  c #62433B",
"b  c #66413B",
"n  c #66463B",
"m  c #61413C",
"M  c #65433C",
"N  c #67423D",
"B  c #6B493D",
"V  c #6F4B3C",
"C  c #6D483F",
"Z  c #764B3A",
"A  c #734A3D",
"S  c #724C3E",
"D  c #724C3F",
"F  c #784D3E",
"G  c #784F3E",
"H  c #7C533E",
"J  c #5A3740",
"K  c #5C3740",
"L  c #503A41",
"P  c #503B41",
"I  c #523B42",
"U  c #543A40",
"Y  c #503C41",
"T  c #533D41",
"R  c #543D43",
"E  c #533C44",
"W  c #563D44",
"Q  c #583940",
"!  c #5B3D41",
"~  c #593E40",
"^  c #47444F",
"/  c #674842",
"(  c #6C4B46",
")  c #734F40",
"_  c #754E41",
"`  c #775143",
"'  c #705245",
"]  c #7B5142",
"[  c #7C5140",
"{  c #7F5440",
"}  c #7E5541",
"|  c #7D5144",
" . c #7C5045",
".. c #7D5345",
"X. c #7A5448",
"o. c #704852",
"O. c #67666C",
"+. c #706A78",
"@. c #8E1E3D",
"#. c #9C173B",
"$. c #9F133C",
"%. c #971E3B",
"&. c #9B1839",
"*. c #9C183D",
"=. c #9F1B3C",
"-. c #B91D49",
";. c #BD1E48",
":. c #9B3753",
">. c #C41D49",
",. c #D91946",
"<. c #DA1B49",
"1. c #D8184B",
"2. c #D91B4B",
"3. c #845743",
"4. c #865B45",
"5. c #865946",
"6. c #8A5943",
"7. c #885944",
"8. c #885945",
"9. c #895945",
"0. c #8A5944",
"q. c #8A5945",
"w. c #895A44",
"e. c #885A45",
"r. c #895A45",
"t. c #895B45",
"y. c #8A5A44",
"u. c #8B5A44",
"i. c #8A5B44",
"p. c #8A5A45",
"a. c #8A5B45",
"s. c #8B5B45",
"d. c #895946",
"f. c #895847",
"g. c #8A5946",
"h. c #8A5947",
"j. c #885A46",
"k. c #895A46",
"l. c #885B46",
"z. c #895B46",
"x. c #885A47",
"c. c #895A47",
"v. c #895B47",
"b. c #8A5A46",
"n. c #8B5A46",
"m. c #8A5B46",
"M. c #8B5B46",
"N. c #8A5A47",
"B. c #8A5B47",
"V. c #8B5B47",
"C. c #8C5A45",
"Z. c #8C5B45",
"A. c #8D5A46",
"S. c #8E5B46",
"D. c #895C46",
"F. c #8C5D44",
"G. c #865B48",
"H. c #875B48",
"J. c #885B48",
"K. c #8B5A48",
"L. c #8A5B48",
"P. c #8A5B49",
"I. c #8D5A48",
"U. c #8A5C48",
"Y. c #8D5C48",
"T. c #8D5C49",
"R. c #8D5D49",
"E. c #915C44",
/* pixels */
"                                                            ",
"                                                            ",
"                                                            ",
"                                                            ",
"                                                            ",
"                                                            ",
"                                            4 a             ",
"                  = w w w 9 e % *       o x A J.V           ",
"                O @ U Y W W W L 8 , 6 V } 3.A.A.G @         ",
"        h #.&.=.$.@.Q Y Y I g ( S ] d.y.d.d.D.J._ #         ",
"      O.:.2.2.,.2.>.J u ! / ..A.F.y.y.d.y.D.d.d.H i         ",
"  ^ +.  o.-.=.> %.;.K g ..J.d.d.D.d.d.D.d.d.d.D.d.v         ",
"    ; - . :       j f ' I.d.D.d.d.D.d.d.d.D.D.d.A.d         ",
"                  $ y X.I.d.D.d.d.D.d.D.d.d.d.d.d.Z r       ",
"                    % m d.d.D.d.d.d.D.d.D.d.D.d.4.d.3       ",
"                      X | A.J.A.D.d.d.d.D.d.d.d.H.d.<       ",
"                        7 d.y.d.d.D.D.d.d.d.D.d.d.H.4       ",
"                        t H D.d.d.d.d.d.D.d.D.d.d.S         ",
"                          v d.d.d.y.d.D.D.d.d.d.d.k         ",
"                            V 4.D.A.D.d.A.R.d.d.D.x         ",
"                              1 s ` ` } E.A.R.V.| 6         ",
"                                      z n b N M p           ",
"                                                            ",
"                                                            ",
"                                                            ",
"                                                            ",
"                                                            ",
"                                                            "
};
