/* XPM */
static char *_7440a7a5d25472cd10e534112546b95muf55U10YcfxDBb5[] = {
/* columns rows colors chars-per-pixel */
"30 28 183 2 ",
"   c None",
".  c #2D1F24",
"X  c #332229",
"o  c #37232B",
"O  c #33242B",
"+  c #37242F",
"@  c #372E2E",
"#  c #3C282A",
"$  c #382A2D",
"%  c #3B2A2D",
"&  c #322B33",
"*  c #342B33",
"=  c #362B32",
"-  c #342835",
";  c #382933",
":  c #3D2933",
">  c #3E2B32",
",  c #3D2E31",
"<  c #3F2C32",
"1  c #3F2F34",
"2  c #3E2D3B",
"3  c #353337",
"4  c #3F3233",
"5  c #3A3036",
"6  c #333139",
"7  c #383639",
"8  c #3E343D",
"9  c #3C3A3F",
"0  c #7B162F",
"q  c #761B2F",
"w  c #6F1F32",
"e  c #53252F",
"r  c #4F362F",
"t  c #402B31",
"y  c #412A32",
"u  c #422F31",
"i  c #402F34",
"p  c #473134",
"a  c #493334",
"s  c #4B3236",
"d  c #483537",
"f  c #4D3835",
"g  c #4B3339",
"h  c #483639",
"j  c #4D3638",
"k  c #4E343A",
"l  c #49353C",
"z  c #4A343C",
"x  c #4B373C",
"c  c #4D383E",
"v  c #4F393E",
"b  c #543633",
"n  c #503835",
"m  c #523A36",
"M  c #573B35",
"N  c #593931",
"B  c #5B3935",
"V  c #513839",
"C  c #523938",
"Z  c #563C39",
"A  c #50383E",
"S  c #50393F",
"D  c #54383E",
"F  c #573B3E",
"G  c #533D3C",
"H  c #593F3B",
"J  c #583B3D",
"K  c #6B2638",
"L  c #5E4038",
"P  c #5C413A",
"I  c #5E403F",
"U  c #5F423E",
"Y  c #69443D",
"T  c #6E483E",
"R  c #70493D",
"E  c #714D3D",
"W  c #423E47",
"Q  c #4E3E46",
"!  c #523741",
"~  c #513A40",
"^  c #523B41",
"/  c #543A43",
"(  c #533C40",
")  c #533C42",
"_  c #543D42",
"`  c #513A44",
"'  c #513C47",
"]  c #523F46",
"[  c #583D41",
"{  c #722C45",
"}  c #474042",
"|  c #484546",
" . c #5D4441",
".. c #514C50",
"X. c #575355",
"o. c #585357",
"O. c #5F5656",
"+. c #624540",
"@. c #694440",
"#. c #6B4841",
"$. c #6D4A43",
"%. c #744C40",
"&. c #744F47",
"*. c #7E4049",
"=. c #734E4A",
"-. c #7A5242",
";. c #7C5140",
":. c #7D5343",
">. c #7B5443",
",. c #7A5144",
"<. c #7A5145",
"1. c #7B5347",
"2. c #7C5246",
"3. c #7F5246",
"4. c #7E5447",
"5. c #795148",
"6. c #63615F",
"7. c #636467",
"8. c #871E3B",
"9. c #9C1739",
"0. c #921B3B",
"q. c #A01A37",
"w. c #AB183D",
"e. c #B11A42",
"r. c #BA1D41",
"t. c #812441",
"y. c #AA2245",
"u. c #AC2346",
"i. c #B5274B",
"p. c #C41A40",
"a. c #CE1B44",
"s. c #D51744",
"d. c #D11B44",
"f. c #DA1B46",
"g. c #DA1749",
"h. c #815742",
"j. c #805244",
"k. c #825244",
"l. c #805645",
"z. c #8E5742",
"x. c #835946",
"c. c #865944",
"v. c #875A45",
"b. c #865846",
"n. c #865A46",
"m. c #8A5942",
"M. c #885A43",
"N. c #895B43",
"B. c #8B5B42",
"V. c #885945",
"C. c #895945",
"Z. c #8A5944",
"A. c #885A45",
"S. c #8B5B44",
"D. c #8A5A45",
"F. c #885946",
"G. c #895947",
"H. c #8B5846",
"J. c #8A5947",
"K. c #885A46",
"L. c #895A46",
"P. c #885B46",
"I. c #895B46",
"U. c #895B47",
"Y. c #8A5A46",
"T. c #8A5B46",
"R. c #8B5B46",
"E. c #8A5B47",
"W. c #8E5945",
"Q. c #8C5A46",
"!. c #8A5C45",
"~. c #8A5C47",
"^. c #845949",
"/. c #8A5948",
"(. c #895A48",
"). c #8A5B48",
"_. c #8A5A4B",
"`. c #8C5B49",
"'. c #8F5A4A",
"]. c #8A5D48",
"[. c #895C4A",
"{. c #8C5C4B",
"}. c #8F5C4A",
/* pixels */
"                                                            ",
"                                                            ",
"                                                            ",
"                                                            ",
"                                            n M N #         ",
"                              - X h f B R E E {.}.b         ",
"                            % C Y j.(.[.}.'.!.M.{.n         ",
"                          p #.:.(.W.z.H.!.H.H.!.E           ",
"                        :  .b.H.H.P.n.P.N.(.H.n.L           ",
"      6 8.9.w         2 k &.H.H.n.!.!.H.M.n.'.,.            ",
"        i.f.p.q.q     y U x.!.H.n.H.P.H.H.N.k.Z             ",
"        *.r.s.d.a.0 + C E !.N.P.!.H.n.n.n.>.P               ",
"        @ e 0.w.g.y.!  .^.H.H.P.H.P.n.H.M.f                 ",
"              K e.u.v +.n.H.H.P.(.P.!.(.<.a y O             ",
"                { t.F 1.P.(.P.!.H.!.4.=.[ S v g l =         ",
"                  ; G h.!.!.].H.H.(.$./ ^ ^ ^ x < 5         ",
"                    4 L 3.4.1.1.,.Y J D / l X -             ",
"                      1 < v ^ ( ( ' ]                       ",
"                          % u a k |         }               ",
"                                & W       7.o.8             ",
"                                    3 9 ..o.7.O.h 5         ",
"                                          7 | c p .         ",
"                                                            ",
"                                                            ",
"                                                            ",
"                                                            ",
"                                                            ",
"                                                            "
};
